<?xml version="1.0" standalone="no"?><!DOCTYPE svg PUBLIC "-//W3C//DTD SVG 1.1//EN" "http://www.w3.org/Graphics/SVG/1.1/DTD/svg11.dtd"><svg t="1725004177863" class="icon" viewBox="0 0 1024 1024" version="1.1" xmlns="http://www.w3.org/2000/svg" p-id="9931" xmlns:xlink="http://www.w3.org/1999/xlink" width="200" height="200"><path d="M935.936 51.2H88.064C67.6864 51.2 51.2 67.6608 51.2 88.064v847.872c0 20.3776 16.4608 36.864 36.864 36.864h847.872c20.3776 0 36.864-16.4864 36.864-36.864V88.064C972.8 67.6864 956.3136 51.2 935.936 51.2zM307.2 844.8H179.2V409.6h128v435.2z m-51.2-512a76.8 76.8 0 1 1 0-153.6 76.8 76.8 0 0 1 0 153.6z m588.8 512h-139.52v-218.6752c0-52.1728-0.9216-119.1936-72.5504-119.1936-72.576 0-83.7376 56.7808-83.7376 115.4304V844.8H409.6V395.1872h133.8624v61.4656h1.8688c18.5856-35.328 64.1024-72.6528 132.096-72.6528C818.816 384 844.8 477.1584 844.8 598.1952V844.8z" fill="#2c2c2c" p-id="9932"></path></svg>