<?xml version="1.0" standalone="no"?><!DOCTYPE svg PUBLIC "-//W3C//DTD SVG 1.1//EN" "http://www.w3.org/Graphics/SVG/1.1/DTD/svg11.dtd"><svg t="1725004217718" class="icon" viewBox="0 0 1024 1024" version="1.1" xmlns="http://www.w3.org/2000/svg" p-id="11149" xmlns:xlink="http://www.w3.org/1999/xlink" width="200" height="200"><path d="M938.709987 764.363681 773.65786 640.385019c-27.960819-18.957771-59.731406-22.847357-82.525552 0l-48.797379 48.879244c-57.230446-42.785455-120.879068-94.901417-178.053232-152.21168-50.646494-50.674123-95.636151-105.646132-133.063575-156.074661l50.483788-50.592258c22.847357-22.794146 18.931165-54.645574 0-82.661651L257.941212 82.427314c-22.793122-22.848381-59.677171-22.848381-82.525552 0l-82.471316 82.661651c-45.587268 45.642526-23.663956 100.123348 0 165.295674 0 0 113.479541 193.692421 260.143878 340.628958 155.910932 156.23839 338.045109 258.674411 338.045109 258.674411 60.22157 31.03483 119.463836 45.669132 165.051103 0l82.525552-82.662675C961.448874 824.205605 966.345394 783.51281 938.709987 764.363681L938.709987 764.363681zM938.709987 764.363681" fill="#2c2c2c" p-id="11150"></path></svg>